<svg xmlns="http://www.w3.org/2000/svg" xmlns:xlink="http://www.w3.org/1999/xlink" version="1.1" x="0px" y="0px" viewBox="0 0 128 128" enable-background="new 0 0 128 128" xml:space="preserve"><path fill="#646768" d="M60.4,104.1c1.1,0,31.9,5.1,36.4,5c7.7-0.2,6.6-12.6,4-14.6c-2.9-2.2-23.2-10.7-23.9-11.8c-0.6-1,9.2-6.3,10.9-9.6  c1.9-3.6-4.1-24.4-6.2-29.1c-0.7-1.5-2-2.9-8.1-4.2c-6.1-1.3-6.7-3-6.7-3c-0.9-1.2-0.5-3.6-0.5-3.6c2.4-2.7,4.9-6.8,5-12.3  c0-7-4.5-9.9-10.9-9.9c-6.4,0-11,2.9-10.9,9.9c0,5.5,2.6,9.6,5,12.3c0,0,0.4,2.3-0.5,3.6c0,0-0.6,1.6-6.7,3s-7.4,2.7-8.1,4.2  c-2.2,4.7-8.1,25.5-6.2,29.1c1.7,3.3,11.5,8.6,10.9,9.6c-0.7,1.1-21,9.6-23.9,11.8c-2.6,2-3.7,14.4,4,14.6  C28.5,109.2,59.2,104.1,60.4,104.1z"/></svg>
